<svg xmlns="http://www.w3.org/2000/svg" viewBox="0 0 553 553" fill-rule="evenodd"><path fill="#E56A00" d="M 435 84 L 413 78 L 392 76 L 370 78 L 347 84 L 329 92 L 307 107 L 292 121 L 273 145 L 259 125 L 243 109 L 227 97 L 210 88 L 191 81 L 170 77 L 129 79 L 112 84 L 96 92 L 75 108 L 60 126 L 45 156 L 37 196 L 37 219 L 41 248 L 54 287 L 81 335 L 120 382 L 163 422 L 217 463 L 273 498 L 308 478 L 343 454 L 406 403 L 438 370 L 463 339 L 483 308 L 498 275 L 507 244 L 510 220 L 509 186 L 503 159 L 495 139 L 478 114 L 459 97 Z M 213 159 L 225 160 L 233 167 L 250 207 L 266 235 L 274 254 L 282 178 L 287 168 L 294 163 L 303 167 L 307 175 L 293 248 L 330 205 L 349 187 L 360 187 L 368 197 L 366 210 L 336 248 L 323 271 L 391 258 L 400 262 L 402 266 L 400 273 L 387 279 L 320 295 L 389 300 L 401 310 L 402 317 L 387 325 L 318 308 L 315 309 L 365 356 L 376 369 L 376 373 L 371 378 L 316 335 L 316 338 L 344 380 L 345 393 L 343 396 L 331 398 L 327 395 L 286 332 L 278 409 L 271 416 L 266 417 L 262 415 L 256 406 L 270 324 L 230 379 L 210 399 L 202 397 L 200 395 L 202 385 L 254 318 L 254 315 L 189 358 L 176 360 L 171 355 L 171 347 L 177 341 L 245 299 L 243 297 L 156 293 L 151 292 L 145 284 L 146 280 L 151 276 L 245 283 L 242 279 L 177 236 L 166 226 L 164 221 L 164 214 L 170 207 L 182 207 L 237 249 L 243 251 L 204 181 L 203 171 Z "/></svg>